<?xml version="1.0" encoding="UTF-8" standalone="no"?>
<!-- Created with Inkscape (http://www.inkscape.org/) -->

<svg
   xmlns:dc="http://purl.org/dc/elements/1.1/"
   xmlns:cc="http://creativecommons.org/ns#"
   xmlns:rdf="http://www.w3.org/1999/02/22-rdf-syntax-ns#"
   xmlns:svg="http://www.w3.org/2000/svg"
   xmlns="http://www.w3.org/2000/svg"
   xmlns:sodipodi="http://sodipodi.sourceforge.net/DTD/sodipodi-0.dtd"
   xmlns:inkscape="http://www.inkscape.org/namespaces/inkscape"
   width="308.3631mm"
   height="84.911285mm"
   viewBox="0 0 308.3631 84.911285"
   version="1.1"
   id="svg1378"
   inkscape:version="0.92.3 (2405546, 2018-03-11)"
   sodipodi:docname="abcelogo.svg"
   inkscape:export-filename="/home/juhis/abce/abcelogo.png"
   inkscape:export-xdpi="300"
   inkscape:export-ydpi="300">
  <defs
     id="defs1372">
    <marker
       inkscape:stockid="Arrow1Lend"
       orient="auto"
       refY="0"
       refX="0"
       id="marker6781"
       style="overflow:visible"
       inkscape:isstock="true">
      <path
         id="path6779"
         d="M 0,0 5,-5 -12.5,0 5,5 Z"
         style="fill:#000000;fill-opacity:1;fill-rule:evenodd;stroke:#000000;stroke-width:1.00000003pt;stroke-opacity:1"
         transform="matrix(-0.8,0,0,-0.8,-10,0)"
         inkscape:connector-curvature="0" />
    </marker>
    <marker
       inkscape:isstock="true"
       style="overflow:visible"
       id="marker6559"
       refX="0"
       refY="0"
       orient="auto"
       inkscape:stockid="Arrow1Lend"
       inkscape:collect="always">
      <path
         inkscape:connector-curvature="0"
         transform="matrix(-0.8,0,0,-0.8,-10,0)"
         style="fill:#000000;fill-opacity:1;fill-rule:evenodd;stroke:#000000;stroke-width:1.00000003pt;stroke-opacity:1"
         d="M 0,0 5,-5 -12.5,0 5,5 Z"
         id="path6557" />
    </marker>
    <marker
       inkscape:stockid="Arrow1Lend"
       orient="auto"
       refY="0"
       refX="0"
       id="Arrow1Lend-0"
       style="overflow:visible"
       inkscape:isstock="true">
      <path
         inkscape:connector-curvature="0"
         id="path4661-2"
         d="M 0,0 5,-5 -12.5,0 5,5 Z"
         style="fill:#000000;fill-opacity:1;fill-rule:evenodd;stroke:#000000;stroke-width:1.00000003pt;stroke-opacity:1"
         transform="matrix(-0.8,0,0,-0.8,-10,0)" />
    </marker>
    <marker
       inkscape:stockid="Arrow1Lend"
       orient="auto"
       refY="0"
       refX="0"
       id="Arrow1Lend"
       style="overflow:visible"
       inkscape:isstock="true"
       inkscape:collect="always">
      <path
         id="path4661"
         d="M 0,0 5,-5 -12.5,0 5,5 Z"
         style="fill:#000000;fill-opacity:1;fill-rule:evenodd;stroke:#000000;stroke-width:1.00000003pt;stroke-opacity:1"
         transform="matrix(-0.8,0,0,-0.8,-10,0)"
         inkscape:connector-curvature="0" />
    </marker>
  </defs>
  <sodipodi:namedview
     id="base"
     pagecolor="#ffffff"
     bordercolor="#666666"
     borderopacity="1.0"
     inkscape:pageopacity="0.0"
     inkscape:pageshadow="2"
     inkscape:zoom="0.88949704"
     inkscape:cx="395.89565"
     inkscape:cy="2.8276597"
     inkscape:document-units="mm"
     inkscape:current-layer="layer1"
     showgrid="false"
     showguides="true"
     inkscape:guide-bbox="true"
     fit-margin-top="5"
     fit-margin-left="5"
     fit-margin-bottom="5"
     fit-margin-right="5"
     inkscape:window-width="1853"
     inkscape:window-height="1040"
     inkscape:window-x="1987"
     inkscape:window-y="27"
     inkscape:window-maximized="1" />
  <metadata
     id="metadata1375">
    <rdf:RDF>
      <cc:Work
         rdf:about="">
        <dc:format>image/svg+xml</dc:format>
        <dc:type
           rdf:resource="http://purl.org/dc/dcmitype/StillImage" />
        <dc:title />
      </cc:Work>
    </rdf:RDF>
  </metadata>
  <g
     inkscape:label="Layer 1"
     inkscape:groupmode="layer"
     id="layer1"
     transform="translate(-50.190554,-30.826867)">
    <rect
       style="fill:#e9afaf;stroke:#000000;stroke-width:0.35277778;stroke-miterlimit:4;stroke-dasharray:none"
       id="rect1969"
       width="47.44371"
       height="8.9235811"
       x="72.281013"
       y="70.638458" />
    <rect
       style="fill:#aad400;stroke:#000000;stroke-width:0.35277778;stroke-miterlimit:4;stroke-dasharray:none"
       id="rect1969-3"
       width="47.443714"
       height="8.9235811"
       x="72.281006"
       y="60.127373" />
    <rect
       style="fill:#80e5ff;stroke:#000000;stroke-width:0.35277778;stroke-miterlimit:4;stroke-dasharray:none"
       id="rect1969-6"
       width="47.443714"
       height="8.9235811"
       x="72.281006"
       y="49.616287" />
    <rect
       style="fill:#ff80b2;stroke:#000000;stroke-width:0.35277778;stroke-miterlimit:4;stroke-dasharray:none"
       id="rect1969-7"
       width="47.443714"
       height="8.9235811"
       x="72.280998"
       y="39.105206" />
    <text
       xml:space="preserve"
       style="font-style:normal;font-weight:normal;font-size:8.46666622px;line-height:1.25;font-family:sans-serif;letter-spacing:0px;word-spacing:0px;fill:#000000;fill-opacity:1;stroke:none;stroke-width:0.26458332"
       x="74.248108"
       y="46.213158"
       id="text5166"><tspan
         sodipodi:role="line"
         id="tspan5164"
         x="74.248108"
         y="46.213158"
         style="stroke-width:0.26458332">memblock</tspan><tspan
         sodipodi:role="line"
         x="74.248108"
         y="56.79649"
         style="stroke-width:0.26458332"
         id="tspan5238">memblock</tspan><tspan
         sodipodi:role="line"
         x="74.248108"
         y="67.379822"
         style="stroke-width:0.26458332"
         id="tspan5240">memblock</tspan><tspan
         sodipodi:role="line"
         x="74.248108"
         y="77.963158"
         style="stroke-width:0.26458332"
         id="tspan5242">memblock</tspan><tspan
         sodipodi:role="line"
         x="74.248108"
         y="88.546486"
         style="stroke-width:0.26458332"
         id="tspan5244">...</tspan></text>
    <path
       style="fill:none;stroke:#000000;stroke-width:0.5;stroke-linecap:butt;stroke-linejoin:miter;stroke-miterlimit:4;stroke-dasharray:none;stroke-opacity:1;marker-end:url(#Arrow1Lend)"
       d="m 78.313093,96.29882 v 12.15302"
       id="path5278"
       inkscape:connector-curvature="0" />
    <path
       style="fill:none;stroke:#000000;stroke-width:0.5;stroke-linecap:butt;stroke-linejoin:miter;stroke-miterlimit:4;stroke-dasharray:none;stroke-opacity:1;marker-end:url(#Arrow1Lend-0)"
       d="M 93.150693,108.83575 V 96.682724"
       id="path5278-9"
       inkscape:connector-curvature="0" />
    <path
       style="fill:none;stroke:#000000;stroke-width:0.5;stroke-miterlimit:4;stroke-dasharray:none"
       d="M 70.719813,92.473071 V 37.588426 h 50.572277 v 54.884645"
       id="rect6471"
       inkscape:connector-curvature="0"
       sodipodi:nodetypes="cccc" />
    <text
       xml:space="preserve"
       style="font-style:normal;font-weight:normal;font-size:96.79389191px;line-height:1.25;font-family:sans-serif;letter-spacing:0px;word-spacing:0px;fill:#aa0000;fill-opacity:1;stroke:none;stroke-width:2.41984749"
       x="126.882"
       y="109.36754"
       id="text2000"><tspan
         sodipodi:role="line"
         id="tspan1998"
         x="126.882"
         y="109.36754"
         style="fill:#aa0000;stroke-width:2.41984749">αbcε</tspan></text>
    <path
       inkscape:connector-curvature="0"
       d="m 103.14945,98.424304 v -1.083729 q 0.031,-0.588312 0.46446,-0.990838 0.43349,-0.402529 1.02181,-0.402529 h 1.48627 v -0.495421 q 0,-0.619272 0.43349,-1.052765 0.43349,-0.433493 1.05277,-0.433493 h 4.9542 q 0.61927,0 1.05276,0.433493 0.43349,0.433493 0.43349,1.052765 v 0.495421 h 1.48626 q 0.58831,0 1.0218,0.402529 0.4335,0.402526 0.46446,0.990838 v 1.083729 q 0,0.402529 -0.29414,0.696693 -0.29415,0.294163 -0.6967,0.294145 v 8.422128 q 0,0.83602 -0.57282,1.40886 -0.57282,0.57284 -1.40886,0.57282 h -7.92671 q -0.83603,0 -1.40887,-0.57282 -0.57284,-0.57282 -0.57283,-1.40886 v -8.422128 q -0.40252,0 -0.69669,-0.294145 -0.29417,-0.294149 -0.29415,-0.696693 z m 0.99084,0 h 11.89009 v -0.990838 q 0,-0.216746 -0.13934,-0.35609 -0.13935,-0.139344 -0.35609,-0.139344 H 104.6357 q -0.21675,0 -0.35609,0.139344 -0.13935,0.139344 -0.13935,0.35609 v 0.990838 z m 0.99085,9.412966 q 0,0.40253 0.29415,0.69669 0.29415,0.29417 0.6967,0.29415 h 7.92671 q 0.40253,0 0.6967,-0.29415 0.29416,-0.29414 0.29414,-0.69669 v -8.422128 h -9.9084 z m 0.99085,-0.49542 v -6.44045 q 0,-0.21675 0.13934,-0.35609 0.13935,-0.13934 0.35609,-0.13934 h 0.99085 q 0.21674,0 0.35609,0.13934 0.13934,0.13934 0.13934,0.35609 v 6.44045 q 0,0.21675 -0.13934,0.3561 -0.13935,0.13934 -0.35609,0.13934 h -0.99085 q -0.21674,0 -0.35609,-0.13934 -0.13934,-0.13935 -0.13934,-0.3561 z m 0.49542,0 h 0.99084 v -6.44045 h -0.99084 z m 0.49542,-11.394642 h 5.94504 v -0.495421 q 0,-0.216746 -0.13935,-0.35609 -0.13934,-0.139345 -0.35609,-0.139345 h -4.95419 q -0.21675,0 -0.3561,0.139345 -0.13934,0.139344 -0.13934,0.35609 v 0.495421 z m 1.98168,11.394642 v -6.44045 q 0,-0.21675 0.13935,-0.35609 0.13934,-0.13934 0.35609,-0.13934 h 0.99083 q 0.21675,0 0.3561,0.13934 0.13934,0.13934 0.13934,0.35609 v 6.44045 q 0,0.21675 -0.13934,0.3561 -0.13935,0.13934 -0.3561,0.13934 h -0.99083 q -0.21675,0 -0.35609,-0.13934 -0.13935,-0.13935 -0.13935,-0.3561 z m 0.49542,0 h 0.99084 v -6.44045 h -0.99084 z m 2.4771,0 v -6.44045 q 0,-0.21675 0.13934,-0.35609 0.13935,-0.13934 0.35609,-0.13934 h 0.99084 q 0.21675,0 0.35609,0.13934 0.13935,0.13934 0.13935,0.35609 v 6.44045 q 0,0.21675 -0.13935,0.3561 -0.13934,0.13934 -0.35609,0.13934 h -0.99084 q -0.21674,0 -0.35609,-0.13934 -0.13934,-0.13935 -0.13934,-0.3561 z m 0.49542,0 h 0.99083 v -6.44045 h -0.99083 z"
       id="path2050"
       style="stroke-width:0.01585443" />
    <path
       style="fill:none;stroke:#000000;stroke-width:0.5;stroke-linecap:butt;stroke-linejoin:miter;stroke-miterlimit:4;stroke-dasharray:none;stroke-opacity:1;marker-end:url(#marker6559)"
       d="m 69.672937,43.27281 c 0,0 -31.827441,12.790469 -0.297453,22.308957"
       id="path6549"
       inkscape:connector-curvature="0"
       sodipodi:nodetypes="cc" />
    <path
       style="fill:none;stroke:#000000;stroke-width:0.5;stroke-linecap:butt;stroke-linejoin:miter;stroke-miterlimit:4;stroke-dasharray:none;stroke-opacity:1;marker-end:url(#marker6781)"
       d="m 122.11832,65.581767 c 0,0 26.4733,3.866885 0,9.221035"
       id="path6771"
       inkscape:connector-curvature="0"
       sodipodi:nodetypes="cc" />
  </g>
</svg>
